<svg width="386" height="55" viewBox="0 0 386 55" fill="none" xmlns="http://www.w3.org/2000/svg">
<g clip-path="url(#clip0_2154_61752)">
<g clip-path="url(#clip1_2154_61752)">
<path d="M163.767 41.3408C162.881 44.7269 159.635 46.6385 155.358 46.6385C149.757 46.6385 145.923 43.1796 145.11 37.0689H173.056C173.056 36.8447 173.202 35.2301 173.202 33.6828C173.202 24.4832 167.153 15.0649 154.618 15.0649C142.082 15.0649 135.96 24.7131 135.96 34.72C135.96 44.7269 142.525 54.4423 155.133 54.4423C164.568 54.4423 171.722 49.6546 172.978 41.3408H163.761H163.767ZM154.612 22.1286C159.848 22.1286 162.797 25.5147 163.167 30.0781H145.396C146.573 24.999 149.819 22.1286 154.612 22.1286Z" fill="#1B8751"/>
<path d="M207.298 15.6538H197.196L189.745 26.8436L182.222 15.6538H172.114L184.655 34.4959L171.671 53.8538H181.925L189.74 42.1539H189.745L197.488 53.8538H207.814L194.836 34.4231L207.298 15.6538Z" fill="#1B8751"/>
<path d="M223.579 4.39648H214.289V15.6592H208.588V23.3844H214.289V41.7836C214.289 50.3217 219.895 54.4422 227.783 54.4422C229.701 54.4422 231.326 54.2236 232.504 53.9265V45.9041C231.466 46.2012 230.216 46.4199 228.888 46.4199C225.793 46.4199 223.579 44.4297 223.579 40.825V23.3844H232.504V15.6592H223.579V4.39648Z" fill="#1B8751"/>
<path d="M263.668 19.9985C261.453 17.0497 257.327 15.0651 252.607 15.0651C241.394 15.0651 234.465 23.0875 234.465 34.7146C234.465 46.3472 241.322 54.4425 252.752 54.4425C257.697 54.4425 261.896 52.2337 263.668 49.3633V53.8538H272.957V0.791992H263.668V19.9985ZM254.081 46.4145C247.959 46.4145 243.906 41.7054 243.906 34.7146C243.906 27.7237 247.959 23.0875 254.081 23.0875C260.203 23.0875 264.256 27.7237 264.256 34.7146C264.256 41.7054 260.203 46.4145 254.081 46.4145Z" fill="#1B8751"/>
<path d="M296.155 15.0649C284.797 15.0649 276.612 23.3788 276.612 34.7144C276.612 46.0499 284.87 54.4366 296.155 54.4366C307.44 54.4366 315.698 46.0443 315.698 34.7144C315.698 23.3844 307.513 15.0649 296.155 15.0649ZM296.155 46.4143C290.033 46.4143 286.126 41.5594 286.126 34.7144C286.126 27.8693 290.258 23.0873 296.155 23.0873C302.053 23.0873 306.257 27.7964 306.257 34.7144C306.257 41.6323 302.277 46.4143 296.155 46.4143Z" fill="#1B8751"/>
<path d="M337.82 15.0649C326.462 15.0649 318.277 23.3788 318.277 34.7144C318.277 46.0499 326.535 54.4366 337.82 54.4366C349.105 54.4366 357.363 46.0443 357.363 34.7144C357.363 23.3844 349.178 15.0649 337.82 15.0649ZM337.82 46.4143C331.698 46.4143 327.79 41.5594 327.79 34.7144C327.79 27.8693 331.922 23.0873 337.82 23.0873C343.717 23.0873 347.922 27.7964 347.922 34.7144C347.922 41.6323 343.942 46.4143 337.82 46.4143Z" fill="#1B8751"/>
<path d="M381.889 15.0649C377.242 15.0649 372.084 18.2997 370.386 22.6444V15.6536H361.096V53.8536H370.386V39.7935C370.386 28.3122 375.403 23.6759 380.785 23.6759C382.186 23.6759 383.364 23.8946 384.468 24.1132V15.2836C383.734 15.1378 382.994 15.0649 381.889 15.0649Z" fill="#1B8751"/>
<path d="M122.343 28.1666C122.343 34.5688 122.64 39.4293 122.64 39.4293C122.64 39.4293 120.426 35.0902 117.107 29.641L99.19 0.791992H88.5664V53.8538H98.45V26.6249C98.45 20.2172 98.08 15.3623 98.08 15.3623C98.08 15.3623 100.294 19.6285 103.613 25.1505L121.53 53.8538H132.148V0.791992H122.343V28.1666Z" fill="#1B8751"/>
<path d="M22.1789 8.27054V0.791992H12.2953V14.4821L0.696289 21.7701L5.95482 30.14L12.2953 26.154V53.8538H55.8828V26.154L62.2233 30.14L67.4819 21.7701L34.0863 0.791992L22.1789 8.27054Z" fill="#1B8751"/>
</g>
</g>
<defs>
<clipPath id="clip0_2154_61752">
<rect width="385.038" height="54.5276" fill="white" transform="translate(0.136719 0.236328)"/>
</clipPath>
<clipPath id="clip1_2154_61752">
<rect width="383.772" height="53.6505" fill="white" transform="translate(0.696289 0.791992)"/>
</clipPath>
</defs>
</svg>
